<svg width="1489" height="1678" xmlns="http://www.w3.org/2000/svg" xmlns:xlink="http://www.w3.org/1999/xlink" xml:space="preserve" overflow="hidden"><defs><clipPath id="clip0"><rect x="307" y="375" width="1489" height="1678"/></clipPath><clipPath id="clip1"><rect x="307" y="375" width="1489" height="1678"/></clipPath></defs><g clip-path="url(#clip0)" transform="translate(-307 -375)"><g clip-path="url(#clip1)"><path d="M3.4375-2.65249e-06 3.43784 444.783-3.43716 444.783-3.4375 2.65249e-06ZM13.7503 440.2 0.000360892 467.7-13.7497 440.2Z" fill="#000000" fill-rule="nonzero" fill-opacity="1" transform="matrix(1 0 0 -1 776.5 940.2)"/><path d="M777.5 1258.06 1697.06 1258.06 1697.06 1264.94 777.5 1264.94ZM1692.47 1247.75 1719.97 1261.5 1692.47 1275.25Z" fill="#000000" fill-rule="nonzero" fill-opacity="1"/><path d="M3.07425-1.53798 195.096 382.291 188.948 385.367-3.07425 1.53798ZM202.268 373.578 202.275 404.324 177.674 385.882Z" fill="#000000" fill-rule="nonzero" fill-opacity="1" transform="matrix(1 0 0 -1 922.5 967.824)"/><path d="M629.5 1233.5 629.5 1875.5" stroke="#000000" stroke-width="6.875" stroke-linecap="butt" stroke-linejoin="miter" stroke-miterlimit="8" stroke-opacity="1" fill="none" fill-rule="evenodd"/><path d="M924.5 646.5 924.5 1288.5" stroke="#000000" stroke-width="6.875" stroke-linecap="butt" stroke-linejoin="miter" stroke-miterlimit="8" stroke-opacity="1" fill="none" fill-rule="evenodd"/><path d="M0 0 293.789 587.251" stroke="#000000" stroke-width="6.875" stroke-linecap="butt" stroke-linejoin="miter" stroke-miterlimit="8" stroke-opacity="1" fill="none" fill-rule="evenodd" transform="matrix(1 0 0 -1 629.5 1233.75)"/><path d="M0 0 293.789 587.251" stroke="#000000" stroke-width="6.875" stroke-linecap="butt" stroke-linejoin="miter" stroke-miterlimit="8" stroke-opacity="1" fill="none" fill-rule="evenodd" transform="matrix(1 0 0 -1 630.5 1875.75)"/><path d="M0 0 293.789 587.251" stroke="#000000" stroke-width="6.875" stroke-linecap="butt" stroke-linejoin="miter" stroke-miterlimit="8" stroke-opacity="1" fill="none" fill-rule="evenodd" transform="matrix(1 0 0 -1 627.5 1447.75)"/><path d="M0 0 293.789 587.251" stroke="#000000" stroke-width="6.875" stroke-linecap="butt" stroke-linejoin="miter" stroke-miterlimit="8" stroke-opacity="1" fill="none" fill-rule="evenodd" transform="matrix(1 0 0 -1 627.5 1661.75)"/><path d="M727.5 1043.5 727.5 1685.5" stroke="#000000" stroke-width="6.875" stroke-linecap="butt" stroke-linejoin="miter" stroke-miterlimit="8" stroke-opacity="1" fill="none" fill-rule="evenodd"/><path d="M825.5 838.5 825.5 1480.5" stroke="#000000" stroke-width="6.875" stroke-linecap="butt" stroke-linejoin="miter" stroke-miterlimit="8" stroke-opacity="1" fill="none" fill-rule="evenodd"/><path d="M0 0 202.275 404.325" stroke="#000000" stroke-width="6.875" stroke-linecap="butt" stroke-linejoin="miter" stroke-miterlimit="8" stroke-opacity="1" fill="none" fill-rule="evenodd" transform="matrix(1 0 0 -1 425.5 1958.82)"/><path d="M0 0 0.000360892 467.7" stroke="#000000" stroke-width="6.875" stroke-linecap="butt" stroke-linejoin="miter" stroke-miterlimit="8" stroke-opacity="1" fill="none" fill-rule="evenodd" transform="matrix(1 0 0 -1 777.5 2050.2)"/><text fill="#000000" fill-opacity="1" font-family="Cambria Math,Cambria Math_MSFontService,sans-serif" font-style="normal" font-variant="normal" font-weight="400" font-stretch="normal" font-size="83" text-anchor="start" direction="ltr" writing-mode="lr-tb" unicode-bidi="normal" text-decoration="none" transform="matrix(1 0 0 1 1731.06 1284)">𝑥</text><text fill="#000000" fill-opacity="1" font-family="Cambria Math,Cambria Math_MSFontService,sans-serif" font-style="normal" font-variant="normal" font-weight="400" font-stretch="normal" font-size="83" text-anchor="start" direction="ltr" writing-mode="lr-tb" unicode-bidi="normal" text-decoration="none" transform="matrix(1 0 0 1 1120.43 533)">𝑦</text><text fill="#000000" fill-opacity="1" font-family="Cambria Math,Cambria Math_MSFontService,sans-serif" font-style="normal" font-variant="normal" font-weight="400" font-stretch="normal" font-size="83" text-anchor="start" direction="ltr" writing-mode="lr-tb" unicode-bidi="normal" text-decoration="none" transform="matrix(1 0 0 1 753.879 456)">𝑧</text><path d="M774 1250.13 988.985 1250.13 988.985 1263.88 774 1263.88ZM982.111 1236.38 1023.36 1257 982.11 1277.63Z" fill="#000000" fill-rule="nonzero" fill-opacity="1"/><text fill="#000000" fill-opacity="1" font-family="Cambria Math,Cambria Math_MSFontService,sans-serif" font-style="normal" font-variant="normal" font-weight="400" font-stretch="normal" font-size="83" text-anchor="start" direction="ltr" writing-mode="lr-tb" unicode-bidi="normal" text-decoration="none" transform="matrix(1 0 0 1 983.414 1345)">𝒏</text><path d="M25.978-58.6836 47.0522-45.9175 45.3906-43.3643 23.7085-53.4556 23.2627-53.4556 1.62109-43.3643 0-45.9175 20.5474-58.6836Z" fill="#000000" fill-rule="nonzero" fill-opacity="1" transform="matrix(1 0 0 1 986.668 1344)"/><text fill="#000000" fill-opacity="0" font-family="Arial,Arial_MSFontService,sans-serif" font-size="15.3193" direction="ltr" writing-mode="lr-tb" y="-45.2792">ෝ</text><path d="M1599.16 1726.59 866.5 1070.5" stroke="#000000" stroke-width="6.875" stroke-linecap="butt" stroke-linejoin="miter" stroke-miterlimit="8" stroke-opacity="1" fill="none" fill-rule="evenodd"/><path d="M22.092 6.99004 785.916 381.002 782.892 387.177 19.0686 13.1646ZM18.6513 24.4426 0 0 30.7449-0.255437Z" fill="#000000" fill-rule="nonzero" fill-opacity="1" transform="matrix(-1 0 0 1 1650.9 686.5)"/><text fill="#000000" fill-opacity="1" font-family="Cambria Math,Cambria Math_MSFontService,sans-serif" font-style="normal" font-variant="normal" font-weight="400" font-stretch="normal" font-size="83" text-anchor="start" direction="ltr" writing-mode="lr-tb" unicode-bidi="normal" text-decoration="none" transform="matrix(1 0 0 1 1615.76 1762)">𝑆</text><text fill="#000000" fill-opacity="1" font-family="Cambria Math,Cambria Math_MSFontService,sans-serif" font-style="normal" font-variant="normal" font-weight="400" font-stretch="normal" font-size="83" text-anchor="start" direction="ltr" writing-mode="lr-tb" unicode-bidi="normal" text-decoration="none" transform="matrix(1 0 0 1 1673.68 693)">𝑆′</text><path d="M1428 1582.47 1279.02 1449.05 1288.19 1438.81 1437.18 1572.22ZM1274.97 1463.88 1258 1421 1302.49 1433.15Z" fill="#000000" fill-rule="nonzero" fill-opacity="1"/><path d="M33.896 8.94249 226.296 103.152 220.249 115.501 27.8492 21.2915ZM27.9769 36.664 0 0 46.1173-0.383153Z" fill="#000000" fill-rule="nonzero" fill-opacity="1" transform="matrix(-1 0 0 1 1471.27 773)"/><text fill="#000000" fill-opacity="1" font-family="Cambria Math,Cambria Math_MSFontService,sans-serif" font-style="normal" font-variant="normal" font-weight="400" font-stretch="normal" font-size="83" text-anchor="start" direction="ltr" writing-mode="lr-tb" unicode-bidi="normal" text-decoration="none" transform="matrix(1 0 0 1 1369.57 1489)">𝒌</text><path d="M25.4917-55.9277 46.0796-45.9175 44.9043-43.3643 23.2222-50.6997 22.7764-50.6997 1.13477-43.3643 0-45.9175 20.061-55.9277Z" fill="#000000" fill-rule="nonzero" fill-opacity="1" transform="matrix(1 0 0 1 1371.88 1470)"/><text fill="#000000" fill-opacity="0" font-family="Arial,Arial_MSFontService,sans-serif" font-size="12.5635" direction="ltr" writing-mode="lr-tb" y="-44.9347">෡</text><text fill="#000000" fill-opacity="1" font-family="Cambria Math,Cambria Math_MSFontService,sans-serif" font-style="normal" font-variant="normal" font-weight="400" font-stretch="normal" font-size="61" text-anchor="start" direction="ltr" writing-mode="lr-tb" unicode-bidi="normal" text-decoration="none" transform="matrix(1 0 0 1 1419.99 1505)">𝑖</text><text fill="#000000" fill-opacity="1" font-family="Cambria Math,Cambria Math_MSFontService,sans-serif" font-style="normal" font-variant="normal" font-weight="400" font-stretch="normal" font-size="83" text-anchor="start" direction="ltr" writing-mode="lr-tb" unicode-bidi="normal" text-decoration="none" transform="matrix(1 0 0 1 1293.54 790)">𝒌</text><path d="M25.4917-55.9277 46.0796-45.9175 44.9043-43.3643 23.2222-50.6997 22.7764-50.6997 1.13477-43.3643 0-45.9175 20.061-55.9277Z" fill="#000000" fill-rule="nonzero" fill-opacity="1" transform="matrix(1 0 0 1 1295.86 772)"/><text fill="#000000" fill-opacity="0" font-family="Arial,Arial_MSFontService,sans-serif" font-size="12.5635" direction="ltr" writing-mode="lr-tb" y="-44.9347">෡</text><text fill="#000000" fill-opacity="1" font-family="Cambria Math,Cambria Math_MSFontService,sans-serif" font-style="normal" font-variant="normal" font-weight="400" font-stretch="normal" font-size="61" text-anchor="start" direction="ltr" writing-mode="lr-tb" unicode-bidi="normal" text-decoration="none" transform="matrix(1 0 0 1 1343.96 807)">𝑟</text><path d="M618.494 1875.5C597.233 1875.5 579.997 1858.86 579.997 1838.33L579.997 1594.62C579.997 1574.09 562.761 1557.45 541.5 1557.45 562.761 1557.45 579.997 1540.81 579.997 1520.28L579.997 1280.67C579.997 1260.14 597.233 1243.5 618.494 1243.5" stroke="#7F7F7F" stroke-width="6.875" stroke-linecap="butt" stroke-linejoin="miter" stroke-miterlimit="8" stroke-opacity="1" fill="none" fill-rule="evenodd"/><text fill="#000000" fill-opacity="1" font-family="Cambria Math,Cambria Math_MSFontService,sans-serif" font-style="normal" font-variant="normal" font-weight="400" font-stretch="normal" font-size="83" text-anchor="start" direction="ltr" writing-mode="lr-tb" unicode-bidi="normal" text-decoration="none" transform="matrix(1 0 0 1 435.073 1570)">𝑁</text><text fill="#000000" fill-opacity="1" font-family="Cambria Math,Cambria Math_MSFontService,sans-serif" font-style="normal" font-variant="normal" font-weight="400" font-stretch="normal" font-size="61" text-anchor="start" direction="ltr" writing-mode="lr-tb" unicode-bidi="normal" text-decoration="none" transform="matrix(1 0 0 1 488.377 1587)">𝑍</text><path d="M623.208 1225.4C604.223 1215.85 596.312 1193.24 605.539 1174.91L718.893 949.723C728.12 931.393 720.21 908.785 701.225 899.229 720.21 908.785 743.081 901.672 752.308 883.342L863.771 661.91C872.998 643.579 895.869 636.466 914.854 646.023" stroke="#7F7F7F" stroke-width="6.875" stroke-linecap="butt" stroke-linejoin="miter" stroke-miterlimit="8" stroke-opacity="1" fill="none" fill-rule="evenodd"/><text fill="#000000" fill-opacity="1" font-family="Cambria Math,Cambria Math_MSFontService,sans-serif" font-style="normal" font-variant="normal" font-weight="400" font-stretch="normal" font-size="83" text-anchor="start" direction="ltr" writing-mode="lr-tb" unicode-bidi="normal" text-decoration="none" transform="matrix(1 0 0 1 605.667 874)">𝑁</text><text fill="#000000" fill-opacity="1" font-family="Cambria Math,Cambria Math_MSFontService,sans-serif" font-style="normal" font-variant="normal" font-weight="400" font-stretch="normal" font-size="61" text-anchor="start" direction="ltr" writing-mode="lr-tb" unicode-bidi="normal" text-decoration="none" transform="matrix(1 0 0 1 658.972 891)">𝑌</text><path d="M872.5 1072.5 1177.99 1072.5" stroke="#000000" stroke-width="6.875" stroke-linecap="butt" stroke-linejoin="miter" stroke-miterlimit="8" stroke-dasharray="27.5 20.625" stroke-opacity="1" fill="none" fill-rule="evenodd"/><path d="M1124.89 951.664 1126.71 953.21 1133.4 959.566 1139.69 966.246 1145.57 973.23 1151.04 980.501 1156.08 988.039 1160.68 995.826 1164.83 1003.84 1168.53 1012.07 1171.77 1020.49 1174.53 1029.08 1176.81 1037.83 1178.61 1046.72 1179.9 1055.72 1180.68 1064.82 1180.94 1073.9 1174.06 1074.1 1173.81 1065.11 1173.82 1065.31 1173.05 1056.41 1173.08 1056.6 1171.81 1047.79 1171.85 1047.98 1170.09 1039.29 1170.14 1039.47 1167.9 1030.91 1167.96 1031.1 1165.25 1022.69 1165.32 1022.87 1162.15 1014.63 1162.22 1014.8 1158.6 1006.75 1158.68 1006.92 1154.62 999.074 1154.71 999.241 1150.21 991.619 1150.31 991.78 1145.38 984.4 1145.49 984.556 1140.14 977.437 1140.25 977.586 1134.49 970.748 1134.62 970.89 1128.46 964.35 1128.6 964.485 1122.04 958.261 1122.19 958.389 1120.44 956.905ZM1130 985.455 1117.46 949.869 1154.61 956.472C1156.48 956.804 1157.73 958.589 1157.39 960.458 1157.06 962.327 1155.28 963.573 1153.41 963.241L1122.06 957.669 1125.91 953.142 1136.48 983.17C1137.11 984.961 1136.17 986.924 1134.38 987.555 1132.59 988.185 1130.63 987.245 1130 985.455Z" fill="#000000" fill-rule="nonzero" fill-opacity="1"/><path d="M1128.93 1073.99 1128.44 1085.63 1127.11 1097.23 1124.95 1108.62 1121.99 1119.77 1118.26 1130.63 1113.77 1141.18 1108.57 1151.38 1102.65 1161.18 1096.06 1170.56 1088.82 1179.48 1080.94 1187.9 1072.45 1195.79 1063.37 1203.11 1053.74 1209.83 1043.57 1215.9 1039.07 1218.17 1035.97 1212.04 1040.36 1209.82 1040.15 1209.93 1050.11 1203.99 1049.91 1204.12 1059.34 1197.54 1059.15 1197.68 1068.04 1190.52 1067.86 1190.67 1076.17 1182.95 1076 1183.12 1083.71 1174.87 1083.56 1175.05 1090.65 1166.32 1090.51 1166.51 1096.96 1157.33 1096.83 1157.53 1102.62 1147.93 1102.5 1148.14 1107.6 1138.16 1107.49 1138.38 1111.88 1128.06 1111.79 1128.28 1115.45 1117.65 1115.37 1117.89 1118.27 1106.98 1118.21 1107.22 1120.33 1096.07 1120.29 1096.32 1121.6 1084.97 1121.58 1085.22 1122.06 1073.7ZM1069.09 1220.46 1031.43 1218.18 1051.95 1186.52C1052.98 1184.93 1055.11 1184.47 1056.7 1185.5 1058.3 1186.54 1058.75 1188.67 1057.72 1190.26L1040.4 1216.97 1037.72 1211.67 1069.5 1213.6C1071.4 1213.71 1072.84 1215.34 1072.73 1217.24 1072.61 1219.13 1070.98 1220.57 1069.09 1220.46Z" fill="#000000" fill-rule="nonzero" fill-opacity="1"/><text fill="#000000" fill-opacity="1" font-family="Cambria Math,Cambria Math_MSFontService,sans-serif" font-style="normal" font-variant="normal" font-weight="400" font-stretch="normal" font-size="83" text-anchor="start" direction="ltr" writing-mode="lr-tb" unicode-bidi="normal" text-decoration="none" transform="matrix(1 0 0 1 1002.25 1153)">𝜃</text><text fill="#000000" fill-opacity="1" font-family="Cambria Math,Cambria Math_MSFontService,sans-serif" font-style="normal" font-variant="normal" font-weight="400" font-stretch="normal" font-size="61" text-anchor="start" direction="ltr" writing-mode="lr-tb" unicode-bidi="normal" text-decoration="none" transform="matrix(1 0 0 1 1045.74 1170)">𝑖</text><text fill="#000000" fill-opacity="1" font-family="Cambria Math,Cambria Math_MSFontService,sans-serif" font-style="normal" font-variant="normal" font-weight="400" font-stretch="normal" font-size="83" text-anchor="start" direction="ltr" writing-mode="lr-tb" unicode-bidi="normal" text-decoration="none" transform="matrix(1 0 0 1 1065.98 1040)">𝜃</text><text fill="#000000" fill-opacity="1" font-family="Cambria Math,Cambria Math_MSFontService,sans-serif" font-style="normal" font-variant="normal" font-weight="400" font-stretch="normal" font-size="61" text-anchor="start" direction="ltr" writing-mode="lr-tb" unicode-bidi="normal" text-decoration="none" transform="matrix(1 0 0 1 1107.55 1057)">𝑟</text><text fill="#000000" fill-opacity="1" font-family="Cambria Math,Cambria Math_MSFontService,sans-serif" font-style="normal" font-variant="normal" font-weight="400" font-stretch="normal" font-size="83" text-anchor="start" direction="ltr" writing-mode="lr-tb" unicode-bidi="normal" text-decoration="none" transform="matrix(1 0 0 1 1147.74 1428)">𝑠</text><text fill="#000000" fill-opacity="1" font-family="Cambria Math,Cambria Math_MSFontService,sans-serif" font-style="normal" font-variant="normal" font-weight="400" font-stretch="normal" font-size="61" text-anchor="start" direction="ltr" writing-mode="lr-tb" unicode-bidi="normal" text-decoration="none" transform="matrix(1 0 0 1 1184.11 1445)">𝑖</text><text fill="#000000" fill-opacity="1" font-family="Cambria Math,Cambria Math_MSFontService,sans-serif" font-style="normal" font-variant="normal" font-weight="400" font-stretch="normal" font-size="83" text-anchor="start" direction="ltr" writing-mode="lr-tb" unicode-bidi="normal" text-decoration="none" transform="matrix(1 0 0 1 1256.94 927)">𝑠</text><text fill="#000000" fill-opacity="1" font-family="Cambria Math,Cambria Math_MSFontService,sans-serif" font-style="normal" font-variant="normal" font-weight="400" font-stretch="normal" font-size="61" text-anchor="start" direction="ltr" writing-mode="lr-tb" unicode-bidi="normal" text-decoration="none" transform="matrix(1 0 0 1 1291.71 944)">𝑟</text><text fill="#000000" fill-opacity="1" font-family="Cambria Math,Cambria Math_MSFontService,sans-serif" font-style="normal" font-variant="normal" font-weight="400" font-stretch="normal" font-size="73" text-anchor="start" direction="ltr" writing-mode="lr-tb" unicode-bidi="normal" text-decoration="none" transform="matrix(1 0 0 1 343.245 993)">(</text><text fill="#000000" fill-opacity="1" font-family="Cambria Math,Cambria Math_MSFontService,sans-serif" font-style="normal" font-variant="normal" font-weight="400" font-stretch="normal" font-size="73" text-anchor="start" direction="ltr" writing-mode="lr-tb" unicode-bidi="normal" text-decoration="none" transform="matrix(1 0 0 1 373.61 993)">𝑦</text><text fill="#000000" fill-opacity="1" font-family="Cambria Math,Cambria Math_MSFontService,sans-serif" font-style="normal" font-variant="normal" font-weight="400" font-stretch="normal" font-size="53" text-anchor="start" direction="ltr" writing-mode="lr-tb" unicode-bidi="normal" text-decoration="none" transform="matrix(1 0 0 1 408.42 1008)">𝑢</text><text fill="#000000" fill-opacity="1" font-family="Cambria Math,Cambria Math_MSFontService,sans-serif" font-style="normal" font-variant="normal" font-weight="400" font-stretch="normal" font-size="73" text-anchor="start" direction="ltr" writing-mode="lr-tb" unicode-bidi="normal" text-decoration="none" transform="matrix(1 0 0 1 447.333 993)">,</text><text fill="#000000" fill-opacity="1" font-family="Cambria Math,Cambria Math_MSFontService,sans-serif" font-style="normal" font-variant="normal" font-weight="400" font-stretch="normal" font-size="73" text-anchor="start" direction="ltr" writing-mode="lr-tb" unicode-bidi="normal" text-decoration="none" transform="matrix(1 0 0 1 474.443 993)">𝑧</text><text fill="#000000" fill-opacity="1" font-family="Cambria Math,Cambria Math_MSFontService,sans-serif" font-style="normal" font-variant="normal" font-weight="400" font-stretch="normal" font-size="53" text-anchor="start" direction="ltr" writing-mode="lr-tb" unicode-bidi="normal" text-decoration="none" transform="matrix(1 0 0 1 508.177 1008)">𝑣</text><text fill="#000000" fill-opacity="1" font-family="Cambria Math,Cambria Math_MSFontService,sans-serif" font-style="normal" font-variant="normal" font-weight="400" font-stretch="normal" font-size="73" text-anchor="start" direction="ltr" writing-mode="lr-tb" unicode-bidi="normal" text-decoration="none" transform="matrix(1 0 0 1 542.941 993)">)</text><path d="M586.086 996.285 864.597 1069.96C865.821 1070.28 866.55 1071.54 866.226 1072.76 865.903 1073.99 864.648 1074.71 863.425 1074.39L584.914 1000.72C583.69 1000.39 582.961 999.138 583.284 997.914 583.608 996.69 584.862 995.961 586.086 996.285ZM867.527 1058.88C874.869 1060.82 879.246 1068.35 877.304 1075.69 875.362 1083.03 867.836 1087.41 860.495 1085.47 853.153 1083.53 848.776 1076 850.718 1068.66 852.66 1061.32 860.186 1056.94 867.527 1058.88Z" fill="#7F7F7F" fill-rule="nonzero" fill-opacity="1"/></g></g></svg>