<svg width="3593" height="554" xmlns="http://www.w3.org/2000/svg" xmlns:xlink="http://www.w3.org/1999/xlink" xml:space="preserve" overflow="hidden"><g transform="translate(-449 -889)"><g><path d="M850.5 985.835C850.5 935.944 890.944 895.5 940.835 895.5L2781.16 895.5C2831.06 895.5 2871.5 935.944 2871.5 985.835L2871.5 1347.16C2871.5 1397.06 2831.06 1437.5 2781.16 1437.5L940.835 1437.5C890.944 1437.5 850.5 1397.06 850.5 1347.16Z" stroke="#000000" stroke-width="4.58333" stroke-linecap="butt" stroke-linejoin="miter" stroke-miterlimit="8" stroke-opacity="1" fill="none" fill-rule="evenodd"/><path d="M2110.5 1135C2110.5 1110.42 2130.42 1090.5 2155 1090.5L2777 1090.5C2801.58 1090.5 2821.5 1110.42 2821.5 1135L2821.5 1313C2821.5 1337.58 2801.58 1357.5 2777 1357.5L2155 1357.5C2130.42 1357.5 2110.5 1337.58 2110.5 1313Z" stroke="#000000" stroke-width="4.58333" stroke-linecap="butt" stroke-linejoin="miter" stroke-miterlimit="8" stroke-opacity="1" fill="none" fill-rule="evenodd"/><text fill="#000000" fill-opacity="1" font-family="NVIDIA Sans,NVIDIA Sans_MSFontService,sans-serif" font-style="normal" font-variant="normal" font-weight="400" font-stretch="normal" font-size="83" text-anchor="start" direction="ltr" writing-mode="lr-tb" unicode-bidi="normal" text-decoration="none" transform="matrix(1 0 0 1 2166.49 1261)">compute_fields</text><text fill="#000000" fill-opacity="1" font-family="NVIDIA Sans,NVIDIA Sans_MSFontService,sans-serif" font-style="normal" font-variant="normal" font-weight="400" font-stretch="normal" font-size="83" text-anchor="start" direction="ltr" writing-mode="lr-tb" unicode-bidi="normal" text-decoration="none" transform="matrix(1 0 0 1 1557.95 1021)">compute_paths</text><path d="M1621.5 1213.19 2059.39 1213.19 2059.39 1233.81 1621.5 1233.81ZM2049.07 1192.56 2110.95 1223.5 2049.07 1254.44Z" fill="#75BA00" fill-rule="nonzero" fill-opacity="1"/><text fill="#000000" fill-opacity="1" font-family="NVIDIA Sans,NVIDIA Sans_MSFontService,sans-serif" font-style="normal" font-variant="normal" font-weight="400" font-stretch="normal" font-size="64" text-anchor="start" direction="ltr" writing-mode="lr-tb" unicode-bidi="normal" text-decoration="none" transform="matrix(1 0 0 1 1662.75 1186)">traced_paths</text><path d="M2821.52 1213.19 3131.05 1213.93 3131 1234.55 2821.48 1233.81ZM3120.79 1193.28 3182.59 1224.37 3120.64 1255.15Z" fill="#75BA00" fill-rule="nonzero" fill-opacity="1"/><text fill="#000000" fill-opacity="1" font-family="NVIDIA Sans,NVIDIA Sans_MSFontService,sans-serif" font-style="normal" font-variant="normal" font-weight="400" font-stretch="normal" font-size="64" text-anchor="start" direction="ltr" writing-mode="lr-tb" unicode-bidi="normal" text-decoration="none" transform="matrix(1 0 0 1 2914.36 1186)">paths</text><path d="M736.5 1213.19 856.843 1213.19 856.843 1233.81 736.5 1233.81ZM846.53 1192.56 908.405 1223.5 846.53 1254.44Z" fill="#75BA00" fill-rule="nonzero" fill-opacity="1"/><text fill="#000000" fill-opacity="1" font-family="NVIDIA Sans,NVIDIA Sans_MSFontService,sans-serif" font-style="normal" font-variant="normal" font-weight="400" font-stretch="normal" font-size="83" text-anchor="start" direction="ltr" writing-mode="lr-tb" unicode-bidi="normal" text-decoration="none" transform="matrix(1 0 0 1 500.011 1250)">scene</text><text fill="#000000" fill-opacity="1" font-family="NVIDIA Sans,NVIDIA Sans_MSFontService,sans-serif" font-style="normal" font-variant="normal" font-weight="400" font-stretch="normal" font-size="83" text-anchor="start" direction="ltr" writing-mode="lr-tb" unicode-bidi="normal" text-decoration="none" transform="matrix(1 0 0 1 1034.68 1257)">trace_paths</text><path d="M910.5 1135C910.5 1110.42 930.424 1090.5 955.001 1090.5L1577 1090.5C1601.58 1090.5 1621.5 1110.42 1621.5 1135L1621.5 1313C1621.5 1337.58 1601.58 1357.5 1577 1357.5L955.001 1357.5C930.424 1357.5 910.5 1337.58 910.5 1313Z" stroke="#000000" stroke-width="4.58333" stroke-linecap="butt" stroke-linejoin="miter" stroke-miterlimit="8" stroke-opacity="1" fill="none" fill-rule="evenodd"/><text fill="#000000" fill-opacity="1" font-family="NVIDIA Sans,NVIDIA Sans_MSFontService,sans-serif" font-style="normal" font-variant="normal" font-weight="400" font-stretch="normal" font-size="83" text-anchor="start" direction="ltr" writing-mode="lr-tb" unicode-bidi="normal" text-decoration="none" transform="matrix(1 0 0 1 3250.85 1261)">paths.cir</text><path d="M3182.5 1138C3182.5 1113.42 3202.42 1093.5 3227 1093.5L3611 1093.5C3635.58 1093.5 3655.5 1113.42 3655.5 1138L3655.5 1316C3655.5 1340.58 3635.58 1360.5 3611 1360.5L3227 1360.5C3202.42 1360.5 3182.5 1340.58 3182.5 1316Z" stroke="#000000" stroke-width="4.58333" stroke-linecap="butt" stroke-linejoin="miter" stroke-miterlimit="8" stroke-opacity="1" fill="none" fill-rule="evenodd"/><text fill="#000000" fill-opacity="1" font-family="NVIDIA Sans,NVIDIA Sans_MSFontService,sans-serif" font-style="normal" font-variant="normal" font-weight="400" font-stretch="normal" font-size="64" text-anchor="start" direction="ltr" writing-mode="lr-tb" unicode-bidi="normal" text-decoration="none" transform="matrix(1 0 0 1 3834.38 1239)">a, tau</text><path d="M2.3893e-05-10.3125 104.203-10.3123 104.203 10.3127-2.3893e-05 10.3125ZM93.8902-30.9373 155.765 0.000360892 93.8901 30.9377Z" fill="#75BA00" fill-rule="nonzero" fill-opacity="1" transform="matrix(1 0 0 -1 3655.5 1224.5)"/></g></g></svg>