<svg width="2329" height="1013" xmlns="http://www.w3.org/2000/svg" xmlns:xlink="http://www.w3.org/1999/xlink" xml:space="preserve" overflow="hidden"><defs><clipPath id="clip0"><rect x="1122" y="724" width="2329" height="1013"/></clipPath><clipPath id="clip1"><rect x="1122" y="724" width="2329" height="1013"/></clipPath></defs><g clip-path="url(#clip0)" transform="translate(-1122 -724)"><g clip-path="url(#clip1)"><path d="M0.3643-3.41814 2083.88 218.64 2083.15 225.476-0.3643 3.41814ZM2080.42 207.9 2106.31 224.487 2077.51 235.245Z" fill="#000000" fill-rule="nonzero" fill-opacity="1" transform="matrix(1 0 0 -1 1266.5 1199.99)"/><path d="M3189.32 994.431C3055.3 1057.7 2900.6 1107.43 2752.68 1134.77" stroke="#000000" stroke-width="6.875" stroke-linecap="butt" stroke-linejoin="miter" stroke-miterlimit="8" stroke-opacity="1" fill="none" fill-rule="evenodd"/><path d="M1266.5 1062.5 3410.11 1373.77" stroke="#000000" stroke-width="6.875" stroke-linecap="butt" stroke-linejoin="miter" stroke-miterlimit="8" stroke-dasharray="55 20.625 6.875 20.625 6.875 20.625" stroke-opacity="1" fill="none" fill-rule="evenodd"/><path d="M1267.95 924.384 2924.19 1695.65 2921.28 1701.88 1265.05 930.616ZM2924.38 1684.37 2943.51 1708.44 2912.78 1709.3Z" fill="#000000" fill-rule="nonzero" fill-opacity="1"/><path d="M0.150322-3.43421 1668.67 69.6 1668.37 76.4685-0.150322 3.43421ZM1664.55 59.0973 1691.42 74.0367 1663.35 86.571Z" fill="#000000" fill-rule="nonzero" fill-opacity="1" transform="matrix(1 0 0 -1 1266.5 1202.54)"/><path d="M1267.43 927.191 3325.92 1505.92 3324.06 1512.54 1265.57 933.809ZM3324.3 1494.76 3347.05 1515.44 3316.86 1521.23Z" fill="#000000" fill-rule="nonzero" fill-opacity="1"/><path d="M3015.5 1283.5 3015.5 1353.13" stroke="#000000" stroke-width="6.875" stroke-linecap="butt" stroke-linejoin="miter" stroke-miterlimit="8" stroke-opacity="1" fill="none" fill-rule="evenodd"/><path d="M2980.5 1318.5 3050.13 1318.5" stroke="#000000" stroke-width="6.875" stroke-linecap="butt" stroke-linejoin="miter" stroke-miterlimit="8" stroke-opacity="1" fill="none" fill-rule="evenodd"/><path d="M2479.5 1204.5 2479.5 1274.13" stroke="#000000" stroke-width="6.875" stroke-linecap="butt" stroke-linejoin="miter" stroke-miterlimit="8" stroke-opacity="1" fill="none" fill-rule="evenodd"/><path d="M2444.5 1239.5 2514.13 1239.5" stroke="#000000" stroke-width="6.875" stroke-linecap="butt" stroke-linejoin="miter" stroke-miterlimit="8" stroke-opacity="1" fill="none" fill-rule="evenodd"/><path d="M3189.52 993.636C3236.58 1140.95 3234.62 1327.87 3184.5 1471.38" stroke="#000000" stroke-width="6.875" stroke-linecap="butt" stroke-linejoin="miter" stroke-miterlimit="8" stroke-opacity="1" fill="none" fill-rule="evenodd"/><path d="M2750.35 1136.48C2798.63 1284.43 2797.06 1473.45 2746.35 1618.34" stroke="#000000" stroke-width="6.875" stroke-linecap="butt" stroke-linejoin="miter" stroke-miterlimit="8" stroke-opacity="1" fill="none" fill-rule="evenodd"/><path d="M3185.12 1472.34C3050.78 1535.92 2895.57 1585.81 2747.2 1613.12" stroke="#000000" stroke-width="6.875" stroke-linecap="butt" stroke-linejoin="miter" stroke-miterlimit="8" stroke-opacity="1" fill="none" fill-rule="evenodd"/><path d="M2634.6 1054.19C2660.29 1134.34 2659.75 1235.86 2633.23 1314.99" stroke="#000000" stroke-width="6.875" stroke-linecap="butt" stroke-linejoin="miter" stroke-miterlimit="8" stroke-opacity="1" fill="none" fill-rule="evenodd"/><path d="M2330.02 1155.41C2356.77 1237.3 2355.91 1341.94 2327.81 1422.13" stroke="#000000" stroke-width="6.875" stroke-linecap="butt" stroke-linejoin="miter" stroke-miterlimit="8" stroke-opacity="1" fill="none" fill-rule="evenodd"/><path d="M2633.76 1055.36C2540.87 1103.74 2429.39 1140.11 2330.65 1154.24" stroke="#000000" stroke-width="6.875" stroke-linecap="butt" stroke-linejoin="miter" stroke-miterlimit="8" stroke-opacity="1" fill="none" fill-rule="evenodd"/><path d="M2636.11 1313.87C2543.06 1365.66 2429.4 1405.64 2328.53 1422.06" stroke="#000000" stroke-width="6.875" stroke-linecap="butt" stroke-linejoin="miter" stroke-miterlimit="8" stroke-opacity="1" fill="none" fill-rule="evenodd"/><path d="M3015 975 3015 1285.67" stroke="#000000" stroke-width="5.72917" stroke-linecap="butt" stroke-linejoin="miter" stroke-miterlimit="8" stroke-dasharray="22.9167 17.1875" stroke-opacity="1" fill="none" fill-rule="evenodd"/><path d="M2479 917 2479 1238.56" stroke="#000000" stroke-width="5.72917" stroke-linecap="butt" stroke-linejoin="miter" stroke-miterlimit="8" stroke-dasharray="22.9167 17.1875" stroke-opacity="1" fill="none" fill-rule="evenodd"/><text fill="#000000" fill-opacity="1" font-family="Cambria Math,Cambria Math_MSFontService,sans-serif" font-style="normal" font-variant="normal" font-weight="400" font-stretch="normal" font-size="61" text-anchor="start" direction="ltr" writing-mode="lr-tb" unicode-bidi="normal" text-decoration="none" transform="matrix(1 0 0 1 2943.58 967)">𝑠</text><text fill="#000000" fill-opacity="1" font-family="Cambria Math,Cambria Math_MSFontService,sans-serif" font-style="normal" font-variant="normal" font-weight="400" font-stretch="normal" font-size="61" text-anchor="start" direction="ltr" writing-mode="lr-tb" unicode-bidi="normal" text-decoration="none" transform="matrix(1 0 0 1 2989.92 967)">=</text><text fill="#000000" fill-opacity="1" font-family="Cambria Math,Cambria Math_MSFontService,sans-serif" font-style="normal" font-variant="normal" font-weight="400" font-stretch="normal" font-size="61" text-anchor="start" direction="ltr" writing-mode="lr-tb" unicode-bidi="normal" text-decoration="none" transform="matrix(1 0 0 1 3052.75 967)">𝑠</text><text fill="#000000" fill-opacity="1" font-family="Cambria Math,Cambria Math_MSFontService,sans-serif" font-style="normal" font-variant="normal" font-weight="400" font-stretch="normal" font-size="61" text-anchor="start" direction="ltr" writing-mode="lr-tb" unicode-bidi="normal" text-decoration="none" transform="matrix(1 0 0 1 2404.06 905)">𝑠</text><text fill="#000000" fill-opacity="1" font-family="Cambria Math,Cambria Math_MSFontService,sans-serif" font-style="normal" font-variant="normal" font-weight="400" font-stretch="normal" font-size="61" text-anchor="start" direction="ltr" writing-mode="lr-tb" unicode-bidi="normal" text-decoration="none" transform="matrix(1 0 0 1 2450.4 905)">=</text><text fill="#000000" fill-opacity="1" font-family="Cambria Math,Cambria Math_MSFontService,sans-serif" font-style="normal" font-variant="normal" font-weight="400" font-stretch="normal" font-size="61" text-anchor="start" direction="ltr" writing-mode="lr-tb" unicode-bidi="normal" text-decoration="none" transform="matrix(1 0 0 1 2513.24 905)">0</text><path d="M1886 857 1886 1152.23" stroke="#000000" stroke-width="5.72917" stroke-linecap="butt" stroke-linejoin="miter" stroke-miterlimit="8" stroke-dasharray="22.9167 17.1875" stroke-opacity="1" fill="none" fill-rule="evenodd"/><text fill="#000000" fill-opacity="1" font-family="Cambria Math,Cambria Math_MSFontService,sans-serif" font-style="normal" font-variant="normal" font-weight="400" font-stretch="normal" font-size="61" text-anchor="start" direction="ltr" writing-mode="lr-tb" unicode-bidi="normal" text-decoration="none" transform="matrix(1 0 0 1 1783.39 838)">𝑠</text><text fill="#000000" fill-opacity="1" font-family="Cambria Math,Cambria Math_MSFontService,sans-serif" font-style="normal" font-variant="normal" font-weight="400" font-stretch="normal" font-size="61" text-anchor="start" direction="ltr" writing-mode="lr-tb" unicode-bidi="normal" text-decoration="none" transform="matrix(1 0 0 1 1829.73 838)">=</text><text fill="#000000" fill-opacity="1" font-family="Cambria Math,Cambria Math_MSFontService,sans-serif" font-style="normal" font-variant="normal" font-weight="400" font-stretch="normal" font-size="61" text-anchor="start" direction="ltr" writing-mode="lr-tb" unicode-bidi="normal" text-decoration="none" transform="matrix(1 0 0 1 1892.57 838)">−</text><text fill="#000000" fill-opacity="1" font-family="Cambria Math,Cambria Math_MSFontService,sans-serif" font-style="normal" font-variant="normal" font-weight="400" font-stretch="normal" font-size="61" text-anchor="start" direction="ltr" writing-mode="lr-tb" unicode-bidi="normal" text-decoration="none" transform="matrix(1 0 0 1 1938.4 838)">𝜌</text><text fill="#000000" fill-opacity="1" font-family="Cambria Math,Cambria Math_MSFontService,sans-serif" font-style="normal" font-variant="normal" font-weight="400" font-stretch="normal" font-size="45" text-anchor="start" direction="ltr" writing-mode="lr-tb" unicode-bidi="normal" text-decoration="none" transform="matrix(1 0 0 1 1969.41 850)">1</text><text fill="#000000" fill-opacity="1" font-family="Cambria Math,Cambria Math_MSFontService,sans-serif" font-style="normal" font-variant="normal" font-weight="400" font-stretch="normal" font-size="61" text-anchor="start" direction="ltr" writing-mode="lr-tb" unicode-bidi="normal" text-decoration="none" transform="matrix(1 0 0 1 1177.89 786)">𝑠</text><text fill="#000000" fill-opacity="1" font-family="Cambria Math,Cambria Math_MSFontService,sans-serif" font-style="normal" font-variant="normal" font-weight="400" font-stretch="normal" font-size="61" text-anchor="start" direction="ltr" writing-mode="lr-tb" unicode-bidi="normal" text-decoration="none" transform="matrix(1 0 0 1 1224.23 786)">=</text><text fill="#000000" fill-opacity="1" font-family="Cambria Math,Cambria Math_MSFontService,sans-serif" font-style="normal" font-variant="normal" font-weight="400" font-stretch="normal" font-size="61" text-anchor="start" direction="ltr" writing-mode="lr-tb" unicode-bidi="normal" text-decoration="none" transform="matrix(1 0 0 1 1287.06 786)">−</text><text fill="#000000" fill-opacity="1" font-family="Cambria Math,Cambria Math_MSFontService,sans-serif" font-style="normal" font-variant="normal" font-weight="400" font-stretch="normal" font-size="61" text-anchor="start" direction="ltr" writing-mode="lr-tb" unicode-bidi="normal" text-decoration="none" transform="matrix(1 0 0 1 1332.9 786)">𝜌</text><text fill="#000000" fill-opacity="1" font-family="Cambria Math,Cambria Math_MSFontService,sans-serif" font-style="normal" font-variant="normal" font-weight="400" font-stretch="normal" font-size="45" text-anchor="start" direction="ltr" writing-mode="lr-tb" unicode-bidi="normal" text-decoration="none" transform="matrix(1 0 0 1 1365.33 799)">2</text><path d="M1266 804 1266 1278.25" stroke="#000000" stroke-width="5.72917" stroke-linecap="butt" stroke-linejoin="miter" stroke-miterlimit="8" stroke-dasharray="22.9167 17.1875" stroke-opacity="1" fill="none" fill-rule="evenodd"/><text fill="#000000" fill-opacity="1" font-family="Cambria Math,Cambria Math_MSFontService,sans-serif" font-style="normal" font-variant="normal" font-weight="400" font-stretch="normal" font-size="61" text-anchor="start" direction="ltr" writing-mode="lr-tb" unicode-bidi="normal" text-decoration="none" transform="matrix(1 0 0 1 3331.31 1336)">𝒔</text><path d="M14.6245-42.9502 24.7515-33.5679 23.1431-31.8701 12.6289-39.1079 12.3013-39.1079 1.6084-31.8701 0-33.5679 10.6333-42.9502Z" fill="#000000" fill-rule="nonzero" fill-opacity="1" transform="matrix(1 0 0 1 3334.38 1335)"/><text fill="#000000" fill-opacity="0" font-family="Arial,Arial_MSFontService,sans-serif" font-size="11.0801" direction="ltr" writing-mode="lr-tb" y="-33.2551">ො</text><path d="M3247.12 1346.96 3401.54 1368.11 3400.29 1377.19 3245.88 1356.04ZM3378.67 1349.42 3409.93 1373.88 3373.24 1389.05C3370.91 1390.01 3368.22 1388.9 3367.26 1386.56 3366.29 1384.22 3367.4 1381.54 3369.74 1380.58L3399.17 1368.41 3398.09 1376.26 3373.02 1356.63C3371.03 1355.07 3370.68 1352.19 3372.24 1350.2 3373.8 1348.21 3376.68 1347.86 3378.67 1349.42Z" fill="#000000" fill-rule="nonzero" fill-opacity="1"/><path d="M1309.26 877.766 1845.76 951.332 1844.98 957.008 1308.48 883.442ZM1310.3 903.93 1268 875 1316.52 858.522ZM1843.95 930.843 1886.24 959.774 1837.72 976.252Z" fill="#000000" fill-rule="nonzero" fill-opacity="1"/><text fill="#000000" fill-opacity="1" font-family="Cambria Math,Cambria Math_MSFontService,sans-serif" font-style="normal" font-variant="normal" font-weight="400" font-stretch="normal" font-size="61" text-anchor="start" direction="ltr" writing-mode="lr-tb" unicode-bidi="normal" text-decoration="none" transform="matrix(1 0 0 1 1568.13 896)">𝜌</text><text fill="#000000" fill-opacity="1" font-family="Cambria Math,Cambria Math_MSFontService,sans-serif" font-style="normal" font-variant="normal" font-weight="400" font-stretch="normal" font-size="83" text-anchor="start" direction="ltr" writing-mode="lr-tb" unicode-bidi="normal" text-decoration="none" transform="matrix(1 0 0 1 1989.1 1038)">𝒙</text><path d="M25.978-58.6836 47.0522-45.9175 45.3906-43.3643 23.7085-53.4556 23.2627-53.4556 1.62109-43.3643 0-45.9175 20.5474-58.6836Z" fill="#000000" fill-rule="nonzero" fill-opacity="1" transform="matrix(1 0 0 1 1989.49 1037)"/><text fill="#000000" fill-opacity="0" font-family="Arial,Arial_MSFontService,sans-serif" font-size="15.3193" direction="ltr" writing-mode="lr-tb" y="-45.2792">ෝ</text><text fill="#000000" fill-opacity="1" font-family="Cambria Math,Cambria Math_MSFontService,sans-serif" font-style="normal" font-variant="normal" font-weight="400" font-stretch="normal" font-size="61" text-anchor="start" direction="ltr" writing-mode="lr-tb" unicode-bidi="normal" text-decoration="none" transform="matrix(1 0 0 1 2034.75 1055)">1</text><text fill="#000000" fill-opacity="1" font-family="Cambria Math,Cambria Math_MSFontService,sans-serif" font-style="normal" font-variant="normal" font-weight="400" font-stretch="normal" font-size="83" text-anchor="start" direction="ltr" writing-mode="lr-tb" unicode-bidi="normal" text-decoration="none" transform="matrix(1 0 0 1 1155.3 1097)">𝒙</text><path d="M25.978-58.6836 47.0522-45.9175 45.3906-43.3643 23.7085-53.4556 23.2627-53.4556 1.62109-43.3643 0-45.9175 20.5474-58.6836Z" fill="#000000" fill-rule="nonzero" fill-opacity="1" transform="matrix(1 0 0 1 1155.69 1095)"/><text fill="#000000" fill-opacity="0" font-family="Arial,Arial_MSFontService,sans-serif" font-size="15.3193" direction="ltr" writing-mode="lr-tb" y="-45.2792">ෝ</text><text fill="#000000" fill-opacity="1" font-family="Cambria Math,Cambria Math_MSFontService,sans-serif" font-style="normal" font-variant="normal" font-weight="400" font-stretch="normal" font-size="61" text-anchor="start" direction="ltr" writing-mode="lr-tb" unicode-bidi="normal" text-decoration="none" transform="matrix(1 0 0 1 1202.86 1113)">2</text><path d="M1258.42 1165.67 1258.15 987.623 1271.9 987.602 1272.17 1165.65ZM1235.08 1025.44 1265 973.968 1295.08 1025.35C1297 1028.63 1295.9 1032.84 1292.62 1034.76 1289.34 1036.68 1285.13 1035.58 1283.21 1032.3L1259.09 991.086 1270.96 991.067 1246.97 1032.35C1245.06 1035.64 1240.85 1036.75 1237.57 1034.84 1234.28 1032.94 1233.17 1028.73 1235.08 1025.44Z" fill="#000000" fill-rule="nonzero" fill-opacity="1"/><path d="M0 0 453.384 180.93" stroke="#000000" stroke-width="6.875" stroke-linecap="butt" stroke-linejoin="miter" stroke-miterlimit="8" stroke-dasharray="55 20.625 6.875 20.625 6.875 20.625" stroke-opacity="1" fill="none" fill-rule="evenodd" transform="matrix(-1 0 0 1 2142.88 1053.5)"/><path d="M2.75858-6.29729 175.846 69.525 170.328 82.1195-2.75858 6.29729ZM150.514 33.1807 185.585 81.2969 126.438 88.1406C122.666 88.577 119.255 85.8732 118.818 82.1014 118.382 78.3296 121.086 74.9182 124.858 74.4817L172.296 68.9927 167.531 79.8717 139.402 41.2796 139.402 41.2796C137.166 38.2113 137.84 33.9108 140.909 31.6743 143.977 29.4379 148.277 30.1123 150.514 33.1807Z" fill="#000000" fill-rule="nonzero" fill-opacity="1" transform="matrix(1 0 0 -1 1969 1122.28)"/></g></g></svg>