<svg width="1485" height="1146" xmlns="http://www.w3.org/2000/svg" xmlns:xlink="http://www.w3.org/1999/xlink" xml:space="preserve" overflow="hidden"><defs><clipPath id="clip0"><rect x="256" y="316" width="1485" height="1146"/></clipPath></defs><g clip-path="url(#clip0)" transform="translate(-256 -316)"><path d="M0 0 766.174 484.956" stroke="#000000" stroke-width="2.29167" stroke-linecap="butt" stroke-linejoin="miter" stroke-miterlimit="8" stroke-opacity="1" fill="none" fill-rule="evenodd" transform="matrix(1 0 0 -1 778 1062.96)"/><path d="M778 1063 970.261 1401.61" stroke="#000000" stroke-width="2.29167" stroke-linecap="butt" stroke-linejoin="miter" stroke-miterlimit="8" stroke-opacity="1" fill="none" fill-rule="evenodd"/><path d="M0 0 129.13 396" stroke="#000000" stroke-width="2.29167" stroke-linecap="butt" stroke-linejoin="miter" stroke-miterlimit="8" stroke-opacity="1" fill="none" fill-rule="evenodd" transform="matrix(-1 0 0 1 778.13 1063)"/><path d="M1544 578 1736.26 916.609" stroke="#000000" stroke-width="2.29167" stroke-linecap="butt" stroke-linejoin="miter" stroke-miterlimit="8" stroke-opacity="1" fill="none" fill-rule="evenodd"/><path d="M970 1395.89C975.657 1396.83 986.985 1401.09 994.908 1401 1002.83 1400.91 1010.84 1397.58 1017.54 1395.36 1020.36 1392.54 1022.53 1388.84 1026.02 1386.9 1031.23 1384.01 1037.34 1383.14 1042.99 1381.26L1059.97 1375.62 1068.45 1372.8 1076.94 1369.98C1080.71 1367.16 1084.67 1364.58 1088.25 1361.52 1115.83 1337.95 1074.96 1369.34 1108.05 1344.6 1109.94 1341.78 1111.3 1338.54 1113.71 1336.14 1135.96 1313.96 1107.51 1349.77 1130.68 1322.05 1139.28 1311.76 1133.08 1314.23 1144.82 1305.13 1163.61 1290.56 1156.01 1296.14 1173.11 1291.03 1181.22 1288.6 1192.48 1283.94 1201.4 1282.57 1209.83 1281.27 1218.38 1280.81 1226.85 1279.75 1233.47 1278.93 1240.05 1277.87 1246.65 1276.93 1256.17 1273.77 1256.67 1274.05 1266.45 1268.47 1276 1263.03 1294.74 1251.55 1294.74 1251.55 1298.51 1246.85 1301.57 1241.48 1306.05 1237.45 1315.29 1229.16 1325.67 1226.36 1334.34 1217.71 1344.76 1207.32 1340.92 1203.94 1354.14 1195.16 1361.16 1190.49 1369.75 1188.54 1376.77 1183.88 1379.6 1182 1382.21 1179.75 1385.25 1178.24 1387.92 1176.91 1390.83 1176.06 1393.74 1175.42 1399.34 1174.18 1405.07 1173.62 1410.71 1172.6 1415.44 1171.74 1420.14 1170.72 1424.85 1169.78 1428.63 1167.9 1432.51 1166.22 1436.17 1164.14 1446.4 1158.31 1458.78 1147.24 1464.45 1138.76 1469.85 1130.7 1478.78 1116.14 1487.08 1113.38 1492.74 1111.5 1498.17 1108.72 1504.05 1107.74 1517.39 1105.53 1520.53 1105.47 1532.34 1102.1 1540.1 1099.89 1547.5 1096.63 1554.97 1093.65L1571.94 1076.73 1580.43 1068.27C1585.24 1053.88 1580.18 1064.79 1591.74 1051.35 1605.78 1035.03 1593.77 1044.36 1608.71 1034.43 1610.6 1031.61 1611.72 1028.09 1614.37 1025.97 1616.7 1024.11 1620.19 1024.48 1622.86 1023.15 1625.9 1021.64 1628.73 1019.68 1631.34 1017.51 1634.42 1014.96 1636.79 1011.65 1639.83 1009.05 1643.41 1005.99 1647.81 1003.92 1651.14 1000.59 1654.48 997.27 1656.89 993.138 1659.63 989.314 1661.6 986.556 1662.73 983.086 1665.29 980.855 1670.4 976.391 1676.6 973.335 1682.26 969.576L1690.74 963.936C1693.57 962.056 1696.82 960.693 1699.23 958.296 1710.12 947.441 1704.39 952.049 1716.2 944.198 1722.8 924.459 1716.2 929.159 1730.34 924.459L1736 916" stroke="#000000" stroke-width="2.29167" stroke-linecap="butt" stroke-linejoin="miter" stroke-miterlimit="8" stroke-opacity="1" fill="none" fill-rule="evenodd"/><path d="M0 0 741.988 90.1863" stroke="#000000" stroke-width="2.29167" stroke-linecap="butt" stroke-linejoin="miter" stroke-miterlimit="8" stroke-opacity="1" fill="none" fill-rule="evenodd" transform="matrix(1 0 0 -1 362 947.186)"/><path d="M0.898038-0.711661 340.031 427.237 338.235 428.66-0.898038 0.711661ZM347.063 415.816 353.366 445.909 325.51 432.896Z" fill="#000000" fill-rule="nonzero" fill-opacity="1" transform="matrix(1 0 0 -1 1104 856.909)"/><path d="M1322.85 719.561C1287.04 612.653 1318.07 484.098 1392.16 432.425 1466.25 380.753 1555.34 425.53 1591.15 532.439 1619.42 616.822 1606.54 717.903 1559.33 782.272" stroke="#000000" stroke-width="2.29167" stroke-linecap="butt" stroke-linejoin="miter" stroke-miterlimit="8" stroke-dasharray="9.16667 6.875" stroke-opacity="1" fill="none" fill-rule="evenodd"/><path d="M0.276509-2.27492 178.397 19.3751 177.844 23.9249-0.276509 2.27492ZM175.23 7.44744 200.87 24.4151 171.912 34.7465Z" fill="#000000" fill-rule="nonzero" fill-opacity="1" transform="matrix(1 0 0 -1 362.5 947.915)"/><path d="M1.80316-1.41434 96.2931 119.052 92.6868 121.88-1.80316 1.41434ZM102.48 108.374 108.633 138.498 80.8423 125.346Z" fill="#000000" fill-rule="nonzero" fill-opacity="1" transform="matrix(1 0 0 -1 1191.5 747.997)"/><text fill="#000000" fill-opacity="1" font-family="Cambria Math,Cambria Math_MSFontService,sans-serif" font-style="normal" font-variant="normal" font-weight="400" font-stretch="normal" font-size="64" text-anchor="start" direction="ltr" writing-mode="lr-tb" unicode-bidi="normal" text-decoration="none" transform="translate(282.574 956)">๐โฒ</text><text fill="#000000" fill-opacity="1" font-family="Cambria Math,Cambria Math_MSFontService,sans-serif" font-style="normal" font-variant="normal" font-weight="400" font-stretch="normal" font-size="64" text-anchor="start" direction="ltr" writing-mode="lr-tb" unicode-bidi="normal" text-decoration="none" transform="translate(1464.28 377)">๐</text><text fill="#000000" fill-opacity="1" font-family="Cambria Math,Cambria Math_MSFontService,sans-serif" font-style="normal" font-variant="normal" font-weight="400" font-stretch="normal" font-size="64" text-anchor="start" direction="ltr" writing-mode="lr-tb" unicode-bidi="normal" text-decoration="none" transform="translate(446.501 910)">๐</text><path d="M15.3437-45.0625 25.9687-35.2187 24.2812-33.4375 13.25-41.0312 12.9062-41.0312 1.6875-33.4375 0-35.2187 11.1562-45.0625Z" fill="#000000" fill-rule="nonzero" fill-opacity="1" transform="matrix(1 0 0 1 449.526 909)"/><text fill="#000000" fill-opacity="0" font-family="Arial,Arial_MSFontService,sans-serif" font-size="11.625" direction="ltr" writing-mode="lr-tb" y="-34.8906">เท</text><text fill="#000000" fill-opacity="1" font-family="Cambria Math,Cambria Math_MSFontService,sans-serif" font-style="normal" font-variant="normal" font-weight="400" font-stretch="normal" font-size="64" text-anchor="start" direction="ltr" writing-mode="lr-tb" unicode-bidi="normal" text-decoration="none" transform="translate(478.584 910)">โฒ</text><text fill="#000000" fill-opacity="1" font-family="Cambria Math,Cambria Math_MSFontService,sans-serif" font-style="normal" font-variant="normal" font-weight="400" font-stretch="normal" font-size="64" text-anchor="start" direction="ltr" writing-mode="lr-tb" unicode-bidi="normal" text-decoration="none" transform="translate(1207.07 669)">๐</text><path d="M15.3437-45.0625 25.9687-35.2187 24.2812-33.4375 13.25-41.0312 12.9062-41.0312 1.6875-33.4375 0-35.2187 11.1562-45.0625Z" fill="#000000" fill-rule="nonzero" fill-opacity="1" transform="matrix(1 0 0 1 1210.1 668)"/><text fill="#000000" fill-opacity="0" font-family="Arial,Arial_MSFontService,sans-serif" font-size="11.625" direction="ltr" writing-mode="lr-tb" y="-34.8906">เท</text><path d="M1.20693-1.94809 142.524 85.6041 140.11 89.5003-1.20693 1.94809ZM144.663 73.4498 160.798 99.6215 130.179 96.8269Z" fill="#000000" fill-rule="nonzero" fill-opacity="1" transform="matrix(1 0 0 -1 1104.5 856.122)"/><text fill="#000000" fill-opacity="1" font-family="Cambria Math,Cambria Math_MSFontService,sans-serif" font-style="normal" font-variant="normal" font-weight="400" font-stretch="normal" font-size="64" text-anchor="start" direction="ltr" writing-mode="lr-tb" unicode-bidi="normal" text-decoration="none" transform="translate(1185.28 857)">๐</text><path d="M15.3437-45.0625 25.9687-35.2187 24.2812-33.4375 13.25-41.0312 12.9062-41.0312 1.6875-33.4375 0-35.2187 11.1562-45.0625Z" fill="#000000" fill-rule="nonzero" fill-opacity="1" transform="matrix(1 0 0 1 1190.03 856)"/><text fill="#000000" fill-opacity="0" font-family="Arial,Arial_MSFontService,sans-serif" font-size="11.625" direction="ltr" writing-mode="lr-tb" y="-34.8906">เท</text><text fill="#000000" fill-opacity="1" font-family="Cambria Math,Cambria Math_MSFontService,sans-serif" font-style="normal" font-variant="normal" font-weight="400" font-stretch="normal" font-size="64" text-anchor="start" direction="ltr" writing-mode="lr-tb" unicode-bidi="normal" text-decoration="none" transform="translate(1073.49 1067)">๐</text><text fill="#000000" fill-opacity="1" font-family="Cambria Math,Cambria Math_MSFontService,sans-serif" font-style="normal" font-variant="normal" font-weight="400" font-stretch="normal" font-size="47" text-anchor="start" direction="ltr" writing-mode="lr-tb" unicode-bidi="normal" text-decoration="none" transform="translate(1115 1080)">๐</text><path d="M1.14583-2.84596e-06 1.14614 122.385-1.14553 122.385-1.14583 2.84596e-06ZM13.7503 117.802 0.000360892 145.302-13.7497 117.802Z" fill="#000000" fill-rule="nonzero" fill-opacity="1" transform="matrix(1 0 0 -1 1104 1002.3)"/><path d="M912.04 978.145 905.062 967.343 898.726 956.208 893.057 944.792 888.066 933.121 883.758 921.206 879.891 906.942 882.103 906.343 885.957 920.561 885.929 920.471 890.21 932.311 890.186 932.25 895.151 943.861 895.124 943.802 900.764 955.16 900.733 955.103 907.038 966.182 907.005 966.127 913.965 976.901ZM868.505 913.991 876.22 884.229 895.401 908.259Z" fill="#000000" fill-rule="nonzero" fill-opacity="1"/><path d="M1275.9 674.243 1284.16 680.982 1292.29 688.611 1300.03 696.566 1307.38 704.843 1314.31 713.431 1320.8 722.294 1318.95 723.648 1312.47 714.806 1312.51 714.849 1305.61 706.303 1305.64 706.344 1298.34 698.106 1298.37 698.145 1290.67 690.228 1290.71 690.265 1282.62 682.681 1282.68 682.733 1274.45 676.019ZM1270.46 688.838 1256.97 661.21 1287.17 666.993Z" fill="#000000" fill-rule="nonzero" fill-opacity="1"/><text fill="#000000" fill-opacity="1" font-family="Cambria Math,Cambria Math_MSFontService,sans-serif" font-style="normal" font-variant="normal" font-weight="400" font-stretch="normal" font-size="55" text-anchor="start" direction="ltr" writing-mode="lr-tb" unicode-bidi="normal" text-decoration="none" transform="translate(916.706 933)">๐ฝ</text><text fill="#000000" fill-opacity="1" font-family="Cambria Math,Cambria Math_MSFontService,sans-serif" font-style="normal" font-variant="normal" font-weight="400" font-stretch="normal" font-size="40" text-anchor="start" direction="ltr" writing-mode="lr-tb" unicode-bidi="normal" text-decoration="none" transform="translate(946.451 944)">0</text><text fill="#000000" fill-opacity="1" font-family="Cambria Math,Cambria Math_MSFontService,sans-serif" font-style="normal" font-variant="normal" font-weight="400" font-stretch="normal" font-size="55" text-anchor="start" direction="ltr" writing-mode="lr-tb" unicode-bidi="normal" text-decoration="none" transform="translate(972.233 933)">โฒ</text><text fill="#000000" fill-opacity="1" font-family="Cambria Math,Cambria Math_MSFontService,sans-serif" font-style="normal" font-variant="normal" font-weight="400" font-stretch="normal" font-size="55" text-anchor="start" direction="ltr" writing-mode="lr-tb" unicode-bidi="normal" text-decoration="none" transform="translate(1223.44 737)">๐ฝ</text><text fill="#000000" fill-opacity="1" font-family="Cambria Math,Cambria Math_MSFontService,sans-serif" font-style="normal" font-variant="normal" font-weight="400" font-stretch="normal" font-size="40" text-anchor="start" direction="ltr" writing-mode="lr-tb" unicode-bidi="normal" text-decoration="none" transform="translate(1253.19 748)">0</text><text fill="#000000" fill-opacity="1" font-family="Calibri,Calibri_MSFontService,sans-serif" font-style="normal" font-variant="normal" font-weight="400" font-stretch="normal" font-size="55" text-anchor="start" direction="ltr" writing-mode="lr-tb" unicode-bidi="normal" text-decoration="none" transform="matrix(1 0 0 1 535.878 1284)">0</text><text fill="#000000" fill-opacity="1" font-family="Calibri,Calibri_MSFontService,sans-serif" font-style="normal" font-variant="normal" font-weight="400" font-stretch="normal" font-size="55" text-anchor="start" direction="ltr" writing-mode="lr-tb" unicode-bidi="normal" text-decoration="none" transform="matrix(1 0 0 1 563.951 1284)">-</text><text fill="#000000" fill-opacity="1" font-family="Calibri,Calibri_MSFontService,sans-serif" font-style="normal" font-variant="normal" font-weight="400" font-stretch="normal" font-size="55" text-anchor="start" direction="ltr" writing-mode="lr-tb" unicode-bidi="normal" text-decoration="none" transform="matrix(1 0 0 1 580.084 1284)">face</text><text fill="#000000" fill-opacity="1" font-family="Calibri,Calibri_MSFontService,sans-serif" font-style="normal" font-variant="normal" font-weight="400" font-stretch="normal" font-size="55" text-anchor="start" direction="ltr" writing-mode="lr-tb" unicode-bidi="normal" text-decoration="none" transform="matrix(1 0 0 1 940.178 1283)">n</text><text fill="#000000" fill-opacity="1" font-family="Calibri,Calibri_MSFontService,sans-serif" font-style="normal" font-variant="normal" font-weight="400" font-stretch="normal" font-size="55" text-anchor="start" direction="ltr" writing-mode="lr-tb" unicode-bidi="normal" text-decoration="none" transform="matrix(1 0 0 1 968.823 1283)">-</text><text fill="#000000" fill-opacity="1" font-family="Calibri,Calibri_MSFontService,sans-serif" font-style="normal" font-variant="normal" font-weight="400" font-stretch="normal" font-size="55" text-anchor="start" direction="ltr" writing-mode="lr-tb" unicode-bidi="normal" text-decoration="none" transform="matrix(1 0 0 1 984.957 1283)">face</text><text fill="#000000" fill-opacity="1" font-family="Cambria Math,Cambria Math_MSFontService,sans-serif" font-style="normal" font-variant="normal" font-weight="400" font-stretch="normal" font-size="64" text-anchor="start" direction="ltr" writing-mode="lr-tb" unicode-bidi="normal" text-decoration="none" transform="translate(767.622 822)">๐ท</text><path d="M19.6562-43.125 35.5312-35.4062 34.625-33.4375 17.9062-39.0937 17.5625-39.0937 0.875-33.4375 0-35.4062 15.4687-43.125Z" fill="#000000" fill-rule="nonzero" fill-opacity="1" transform="matrix(1 0 0 1 771.586 807)"/><text fill="#000000" fill-opacity="0" font-family="Arial,Arial_MSFontService,sans-serif" font-size="9.6875" direction="ltr" writing-mode="lr-tb" y="-34.6484">เทก</text><text fill="#000000" fill-opacity="1" font-family="Cambria Math,Cambria Math_MSFontService,sans-serif" font-style="normal" font-variant="normal" font-weight="400" font-stretch="normal" font-size="47" text-anchor="start" direction="ltr" writing-mode="lr-tb" unicode-bidi="normal" text-decoration="none" transform="translate(811.164 836)">0</text><text fill="#000000" fill-opacity="1" font-family="Cambria Math,Cambria Math_MSFontService,sans-serif" font-style="normal" font-variant="normal" font-weight="400" font-stretch="normal" font-size="47" text-anchor="start" direction="ltr" writing-mode="lr-tb" unicode-bidi="normal" text-decoration="none" transform="translate(811.164 797)">โฒ</text><path d="M866.15 882.04 864.525 764.446 869.108 764.383 870.732 881.976ZM853.131 769.187 866.5 741.5 880.629 768.807Z" fill="#000000" fill-rule="nonzero" fill-opacity="1"/><path d="M1351.98 545.878 1244.83 458.737 1247.73 455.181 1354.88 542.323ZM1241.16 470.519 1228.5 442.5 1258.51 449.183Z" fill="#000000" fill-rule="nonzero" fill-opacity="1"/><text fill="#000000" fill-opacity="1" font-family="Cambria Math,Cambria Math_MSFontService,sans-serif" font-style="normal" font-variant="normal" font-weight="400" font-stretch="normal" font-size="64" text-anchor="start" direction="ltr" writing-mode="lr-tb" unicode-bidi="normal" text-decoration="none" transform="translate(1231.49 547)">๐ท</text><path d="M19.6562-43.125 35.5312-35.4062 34.625-33.4375 17.9062-39.0937 17.5625-39.0937 0.875-33.4375 0-35.4062 15.4687-43.125Z" fill="#000000" fill-rule="nonzero" fill-opacity="1" transform="matrix(1 0 0 1 1235.46 533)"/><text fill="#000000" fill-opacity="0" font-family="Arial,Arial_MSFontService,sans-serif" font-size="9.6875" direction="ltr" writing-mode="lr-tb" y="-34.6484">เทก</text><text fill="#000000" fill-opacity="1" font-family="Cambria Math,Cambria Math_MSFontService,sans-serif" font-style="normal" font-variant="normal" font-weight="400" font-stretch="normal" font-size="47" text-anchor="start" direction="ltr" writing-mode="lr-tb" unicode-bidi="normal" text-decoration="none" transform="translate(1275.04 560)">0</text><text fill="#000000" fill-opacity="1" font-family="Cambria Math,Cambria Math_MSFontService,sans-serif" font-style="normal" font-variant="normal" font-weight="400" font-stretch="normal" font-size="64" text-anchor="start" direction="ltr" writing-mode="lr-tb" unicode-bidi="normal" text-decoration="none" transform="translate(656.365 984)">๐โฒ</text><text fill="#000000" fill-opacity="1" font-family="Cambria Math,Cambria Math_MSFontService,sans-serif" font-style="normal" font-variant="normal" font-weight="400" font-stretch="normal" font-size="64" text-anchor="start" direction="ltr" writing-mode="lr-tb" unicode-bidi="normal" text-decoration="none" transform="translate(1393.15 549)">๐</text><text fill="#000000" fill-opacity="1" font-family="Calibri,Calibri_MSFontService,sans-serif" font-style="normal" font-variant="normal" font-weight="400" font-stretch="normal" font-size="55" text-anchor="start" direction="ltr" writing-mode="lr-tb" unicode-bidi="normal" text-decoration="none" transform="matrix(1 0 0 1 1344.28 826)">Kellerโs cone</text></g></svg>